<mxfile host="Electron" agent="Mozilla/5.0 (Windows NT 10.0; Win64; x64) AppleWebKit/537.36 (KHTML, like Gecko) draw.io/26.2.2 Chrome/134.0.6998.178 Electron/35.1.2 Safari/537.36" version="26.2.2">
  <diagram name="Страница — 1" id="UCesf0R_lC0VAAy8Ih6O">
    <mxGraphModel dx="846" dy="2010" grid="1" gridSize="10" guides="1" tooltips="1" connect="1" arrows="1" fold="1" page="1" pageScale="1" pageWidth="827" pageHeight="1169" math="0" shadow="0">
      <root>
        <mxCell id="0" />
        <mxCell id="1" parent="0" />
        <mxCell id="y9ipd3A6CDy-UtK4piMf-64" value="" style="rounded=0;whiteSpace=wrap;html=1;" parent="1" vertex="1">
          <mxGeometry x="500" y="-160" width="520" height="821" as="geometry" />
        </mxCell>
        <mxCell id="sHumg900K78rmV8-m8hz-3" value="&lt;font style=&quot;color: rgb(0, 0, 0);&quot;&gt;Браузер&lt;/font&gt;" style="fontColor=#0066CC;verticalAlign=top;verticalLabelPosition=bottom;labelPosition=center;align=center;html=1;outlineConnect=0;fillColor=#CCCCCC;strokeColor=#6881B3;gradientColor=none;gradientDirection=north;strokeWidth=2;shape=mxgraph.networks.pc;" parent="1" vertex="1">
          <mxGeometry x="328.25" y="369.84" width="100" height="70" as="geometry" />
        </mxCell>
        <mxCell id="sHumg900K78rmV8-m8hz-12" style="rounded=0;orthogonalLoop=1;jettySize=auto;html=1;strokeColor=default;endArrow=none;startFill=0;" parent="1" source="uQMSqDjwdp7ry0qqXLGB-5" target="sHumg900K78rmV8-m8hz-3" edge="1">
          <mxGeometry relative="1" as="geometry">
            <mxPoint x="299.9538018317733" y="329.1105510685345" as="sourcePoint" />
            <mxPoint x="390.05" y="436" as="targetPoint" />
          </mxGeometry>
        </mxCell>
        <mxCell id="sHumg900K78rmV8-m8hz-15" style="rounded=0;orthogonalLoop=1;jettySize=auto;html=1;strokeColor=default;endArrow=none;startFill=0;" parent="1" source="y9ipd3A6CDy-UtK4piMf-1" target="sHumg900K78rmV8-m8hz-3" edge="1">
          <mxGeometry relative="1" as="geometry">
            <mxPoint x="640" y="405" as="sourcePoint" />
            <mxPoint x="460" y="405" as="targetPoint" />
          </mxGeometry>
        </mxCell>
        <mxCell id="uQMSqDjwdp7ry0qqXLGB-13" value="HTTPS" style="edgeLabel;html=1;align=center;verticalAlign=middle;resizable=0;points=[];" parent="sHumg900K78rmV8-m8hz-15" vertex="1" connectable="0">
          <mxGeometry x="-0.4635" relative="1" as="geometry">
            <mxPoint x="-15" y="-45" as="offset" />
          </mxGeometry>
        </mxCell>
        <mxCell id="uQMSqDjwdp7ry0qqXLGB-5" value="Пользователь" style="sketch=0;outlineConnect=0;fontColor=#232F3E;gradientColor=none;fillColor=#232F3D;strokeColor=none;dashed=0;verticalLabelPosition=bottom;verticalAlign=top;align=center;html=1;fontSize=12;fontStyle=0;aspect=fixed;pointerEvents=1;shape=mxgraph.aws4.authenticated_user;" parent="1" vertex="1">
          <mxGeometry x="200.45000000000002" y="311.9999999999999" width="78" height="78" as="geometry" />
        </mxCell>
        <mxCell id="uQMSqDjwdp7ry0qqXLGB-8" value="Администратор" style="image;aspect=fixed;html=1;points=[];align=center;fontSize=12;image=img/lib/azure2/identity/User_Settings.svg;" parent="1" vertex="1">
          <mxGeometry x="190.04999999999998" y="439.84000000000003" width="88.4" height="74" as="geometry" />
        </mxCell>
        <mxCell id="uQMSqDjwdp7ry0qqXLGB-9" style="rounded=0;orthogonalLoop=1;jettySize=auto;html=1;strokeColor=default;endArrow=none;startFill=0;" parent="1" source="uQMSqDjwdp7ry0qqXLGB-8" target="sHumg900K78rmV8-m8hz-3" edge="1">
          <mxGeometry relative="1" as="geometry">
            <mxPoint x="309.9538018317733" y="469.20674923676097" as="sourcePoint" />
            <mxPoint x="390.05" y="436" as="targetPoint" />
          </mxGeometry>
        </mxCell>
        <mxCell id="uQMSqDjwdp7ry0qqXLGB-21" value="&lt;span style=&quot;background-color: rgb(255, 255, 255);&quot;&gt;Kubernetes кластер распределенной системы бронирования отелей&lt;/span&gt;" style="text;whiteSpace=wrap;html=1;align=center;" parent="1" vertex="1">
          <mxGeometry x="598.75" y="670" width="322.5" height="40" as="geometry" />
        </mxCell>
        <mxCell id="y9ipd3A6CDy-UtK4piMf-1" value="Шлюз&lt;div&gt;для фронтенда&lt;/div&gt;" style="outlineConnect=0;dashed=0;verticalLabelPosition=bottom;verticalAlign=top;align=center;html=1;shape=mxgraph.aws3.internet_gateway;fillColor=#F58534;gradientColor=none;" parent="1" vertex="1">
          <mxGeometry x="510" y="524.5" width="90" height="95" as="geometry" />
        </mxCell>
        <mxCell id="y9ipd3A6CDy-UtK4piMf-3" value="Фронтенд" style="sketch=0;outlineConnect=0;fontColor=#232F3E;gradientColor=none;fillColor=#232F3D;strokeColor=none;dashed=0;verticalLabelPosition=bottom;verticalAlign=top;align=center;html=1;fontSize=12;fontStyle=0;aspect=fixed;pointerEvents=1;shape=mxgraph.aws4.traditional_server;" parent="1" vertex="1">
          <mxGeometry x="660" y="533" width="45" height="78" as="geometry" />
        </mxCell>
        <mxCell id="y9ipd3A6CDy-UtK4piMf-4" value="Сервис координатор" style="sketch=0;outlineConnect=0;fontColor=#232F3E;gradientColor=none;fillColor=#232F3D;strokeColor=none;dashed=0;verticalLabelPosition=bottom;verticalAlign=top;align=center;html=1;fontSize=12;fontStyle=0;aspect=fixed;pointerEvents=1;shape=mxgraph.aws4.traditional_server;" parent="1" vertex="1">
          <mxGeometry x="660" y="218.49999999999997" width="45" height="78" as="geometry" />
        </mxCell>
        <mxCell id="y9ipd3A6CDy-UtK4piMf-6" value="Сервис бронирований" style="sketch=0;outlineConnect=0;fontColor=#232F3E;gradientColor=none;fillColor=#232F3D;strokeColor=none;dashed=0;verticalLabelPosition=bottom;verticalAlign=top;align=center;html=1;fontSize=12;fontStyle=0;aspect=fixed;pointerEvents=1;shape=mxgraph.aws4.traditional_server;" parent="1" vertex="1">
          <mxGeometry x="780" y="-20" width="45" height="78" as="geometry" />
        </mxCell>
        <mxCell id="y9ipd3A6CDy-UtK4piMf-7" value="Сервис статистики" style="sketch=0;outlineConnect=0;fontColor=#232F3E;gradientColor=none;fillColor=#232F3D;strokeColor=none;dashed=0;verticalLabelPosition=bottom;verticalAlign=top;align=center;html=1;fontSize=12;fontStyle=0;aspect=fixed;pointerEvents=1;shape=mxgraph.aws4.traditional_server;" parent="1" vertex="1">
          <mxGeometry x="782" y="218.5" width="45" height="78" as="geometry" />
        </mxCell>
        <mxCell id="y9ipd3A6CDy-UtK4piMf-8" value="Сервис платежей" style="sketch=0;outlineConnect=0;fontColor=#232F3E;gradientColor=none;fillColor=#232F3D;strokeColor=none;dashed=0;verticalLabelPosition=bottom;verticalAlign=top;align=center;html=1;fontSize=12;fontStyle=0;aspect=fixed;pointerEvents=1;shape=mxgraph.aws4.traditional_server;" parent="1" vertex="1">
          <mxGeometry x="540" y="-20" width="45" height="78" as="geometry" />
        </mxCell>
        <mxCell id="y9ipd3A6CDy-UtK4piMf-9" value="Сервис&lt;div&gt;лояльности&lt;/div&gt;" style="sketch=0;outlineConnect=0;fontColor=#232F3E;gradientColor=none;fillColor=#232F3D;strokeColor=none;dashed=0;verticalLabelPosition=bottom;verticalAlign=top;align=center;html=1;fontSize=12;fontStyle=0;aspect=fixed;pointerEvents=1;shape=mxgraph.aws4.traditional_server;" parent="1" vertex="1">
          <mxGeometry x="660" y="-20" width="45" height="78" as="geometry" />
        </mxCell>
        <mxCell id="y9ipd3A6CDy-UtK4piMf-11" style="rounded=0;orthogonalLoop=1;jettySize=auto;html=1;strokeColor=default;endArrow=none;startFill=0;" parent="1" source="y9ipd3A6CDy-UtK4piMf-3" target="y9ipd3A6CDy-UtK4piMf-1" edge="1">
          <mxGeometry relative="1" as="geometry">
            <mxPoint x="610" y="340" as="sourcePoint" />
            <mxPoint x="560" y="340" as="targetPoint" />
          </mxGeometry>
        </mxCell>
        <mxCell id="y9ipd3A6CDy-UtK4piMf-12" value="HTTP" style="edgeLabel;html=1;align=center;verticalAlign=middle;resizable=0;points=[];" parent="y9ipd3A6CDy-UtK4piMf-11" vertex="1" connectable="0">
          <mxGeometry x="-0.4635" relative="1" as="geometry">
            <mxPoint x="-14" y="-22" as="offset" />
          </mxGeometry>
        </mxCell>
        <mxCell id="y9ipd3A6CDy-UtK4piMf-18" style="rounded=0;orthogonalLoop=1;jettySize=auto;html=1;strokeColor=default;endArrow=none;startFill=0;" parent="1" source="y9ipd3A6CDy-UtK4piMf-7" target="y9ipd3A6CDy-UtK4piMf-4" edge="1">
          <mxGeometry relative="1" as="geometry">
            <mxPoint x="898" y="130" as="sourcePoint" />
            <mxPoint x="807" y="376" as="targetPoint" />
          </mxGeometry>
        </mxCell>
        <mxCell id="K1tXghIjEuXvPOBKZeHS-8" value="HTTP" style="edgeLabel;html=1;align=center;verticalAlign=middle;resizable=0;points=[];" parent="y9ipd3A6CDy-UtK4piMf-18" vertex="1" connectable="0">
          <mxGeometry x="0.1499" y="2" relative="1" as="geometry">
            <mxPoint x="15" y="-19" as="offset" />
          </mxGeometry>
        </mxCell>
        <mxCell id="y9ipd3A6CDy-UtK4piMf-20" style="rounded=0;orthogonalLoop=1;jettySize=auto;html=1;strokeColor=default;endArrow=none;startFill=0;" parent="1" source="y9ipd3A6CDy-UtK4piMf-6" target="y9ipd3A6CDy-UtK4piMf-4" edge="1">
          <mxGeometry relative="1" as="geometry">
            <mxPoint x="1070" y="289" as="sourcePoint" />
            <mxPoint x="815" y="405" as="targetPoint" />
          </mxGeometry>
        </mxCell>
        <mxCell id="y9ipd3A6CDy-UtK4piMf-22" style="rounded=0;orthogonalLoop=1;jettySize=auto;html=1;strokeColor=default;endArrow=none;startFill=0;" parent="1" source="y9ipd3A6CDy-UtK4piMf-8" target="y9ipd3A6CDy-UtK4piMf-4" edge="1">
          <mxGeometry relative="1" as="geometry">
            <mxPoint x="1040" y="411" as="sourcePoint" />
            <mxPoint x="815" y="415" as="targetPoint" />
          </mxGeometry>
        </mxCell>
        <mxCell id="y9ipd3A6CDy-UtK4piMf-23" value="HTTP" style="edgeLabel;html=1;align=center;verticalAlign=middle;resizable=0;points=[];" parent="y9ipd3A6CDy-UtK4piMf-22" vertex="1" connectable="0">
          <mxGeometry x="-0.4635" relative="1" as="geometry">
            <mxPoint x="16" y="99" as="offset" />
          </mxGeometry>
        </mxCell>
        <mxCell id="y9ipd3A6CDy-UtK4piMf-24" style="rounded=0;orthogonalLoop=1;jettySize=auto;html=1;strokeColor=default;endArrow=none;startFill=0;" parent="1" source="y9ipd3A6CDy-UtK4piMf-9" target="y9ipd3A6CDy-UtK4piMf-4" edge="1">
          <mxGeometry relative="1" as="geometry">
            <mxPoint x="890" y="475" as="sourcePoint" />
            <mxPoint x="815" y="429" as="targetPoint" />
          </mxGeometry>
        </mxCell>
        <mxCell id="y9ipd3A6CDy-UtK4piMf-25" value="HTTP" style="edgeLabel;html=1;align=center;verticalAlign=middle;resizable=0;points=[];" parent="y9ipd3A6CDy-UtK4piMf-24" vertex="1" connectable="0">
          <mxGeometry x="-0.4635" relative="1" as="geometry">
            <mxPoint x="23" y="69" as="offset" />
          </mxGeometry>
        </mxCell>
        <mxCell id="y9ipd3A6CDy-UtK4piMf-27" value="" style="shape=datastore;whiteSpace=wrap;html=1;" parent="1" vertex="1">
          <mxGeometry x="903.75" y="227.5" width="60" height="60" as="geometry" />
        </mxCell>
        <mxCell id="y9ipd3A6CDy-UtK4piMf-28" value="" style="shape=datastore;whiteSpace=wrap;html=1;" parent="1" vertex="1">
          <mxGeometry x="772.5" y="-150" width="60" height="60" as="geometry" />
        </mxCell>
        <mxCell id="y9ipd3A6CDy-UtK4piMf-29" value="" style="shape=datastore;whiteSpace=wrap;html=1;" parent="1" vertex="1">
          <mxGeometry x="532.5" y="-149.99999999999994" width="60" height="60" as="geometry" />
        </mxCell>
        <mxCell id="y9ipd3A6CDy-UtK4piMf-30" value="" style="shape=datastore;whiteSpace=wrap;html=1;" parent="1" vertex="1">
          <mxGeometry x="652.5" y="-150" width="60" height="60" as="geometry" />
        </mxCell>
        <mxCell id="y9ipd3A6CDy-UtK4piMf-31" value="Шлюз&lt;div&gt;для Idp&lt;/div&gt;" style="outlineConnect=0;dashed=0;verticalLabelPosition=bottom;verticalAlign=top;align=center;html=1;shape=mxgraph.aws3.internet_gateway;fillColor=#F58534;gradientColor=none;" parent="1" vertex="1">
          <mxGeometry x="510" y="357.34000000000003" width="90" height="95" as="geometry" />
        </mxCell>
        <mxCell id="y9ipd3A6CDy-UtK4piMf-45" value="СУБД бронирований" style="text;html=1;align=center;verticalAlign=middle;whiteSpace=wrap;rounded=0;" parent="1" vertex="1">
          <mxGeometry x="735.63" y="-90" width="137.5" height="30" as="geometry" />
        </mxCell>
        <mxCell id="y9ipd3A6CDy-UtK4piMf-47" value="СУБД лояльности" style="text;html=1;align=center;verticalAlign=middle;whiteSpace=wrap;rounded=0;" parent="1" vertex="1">
          <mxGeometry x="629.38" y="-90" width="106.25" height="30" as="geometry" />
        </mxCell>
        <mxCell id="y9ipd3A6CDy-UtK4piMf-48" value="СУБД Idp" style="text;html=1;align=center;verticalAlign=middle;whiteSpace=wrap;rounded=0;" parent="1" vertex="1">
          <mxGeometry x="752.5" y="443" width="100" height="30" as="geometry" />
        </mxCell>
        <mxCell id="y9ipd3A6CDy-UtK4piMf-55" style="rounded=0;orthogonalLoop=1;jettySize=auto;html=1;strokeColor=default;endArrow=none;startFill=0;" parent="1" source="y9ipd3A6CDy-UtK4piMf-27" target="y9ipd3A6CDy-UtK4piMf-7" edge="1">
          <mxGeometry relative="1" as="geometry">
            <mxPoint x="1010" y="120" as="sourcePoint" />
            <mxPoint x="945" y="120" as="targetPoint" />
          </mxGeometry>
        </mxCell>
        <mxCell id="y9ipd3A6CDy-UtK4piMf-56" value="TCP" style="edgeLabel;html=1;align=center;verticalAlign=middle;resizable=0;points=[];" parent="y9ipd3A6CDy-UtK4piMf-55" vertex="1" connectable="0">
          <mxGeometry x="-0.4635" relative="1" as="geometry">
            <mxPoint x="-14" y="-15" as="offset" />
          </mxGeometry>
        </mxCell>
        <mxCell id="y9ipd3A6CDy-UtK4piMf-57" style="rounded=0;orthogonalLoop=1;jettySize=auto;html=1;strokeColor=default;endArrow=none;startFill=0;fontStyle=1" parent="1" source="y9ipd3A6CDy-UtK4piMf-46" target="y9ipd3A6CDy-UtK4piMf-8" edge="1">
          <mxGeometry relative="1" as="geometry">
            <mxPoint x="1020" y="30" as="sourcePoint" />
            <mxPoint x="955" y="30" as="targetPoint" />
          </mxGeometry>
        </mxCell>
        <mxCell id="y9ipd3A6CDy-UtK4piMf-59" style="rounded=0;orthogonalLoop=1;jettySize=auto;html=1;strokeColor=default;endArrow=none;startFill=0;" parent="1" source="y9ipd3A6CDy-UtK4piMf-30" target="y9ipd3A6CDy-UtK4piMf-9" edge="1">
          <mxGeometry relative="1" as="geometry">
            <mxPoint x="1030" y="40" as="sourcePoint" />
            <mxPoint x="965" y="40" as="targetPoint" />
          </mxGeometry>
        </mxCell>
        <mxCell id="y9ipd3A6CDy-UtK4piMf-60" value="TCP" style="edgeLabel;html=1;align=center;verticalAlign=middle;resizable=0;points=[];" parent="y9ipd3A6CDy-UtK4piMf-59" vertex="1" connectable="0">
          <mxGeometry x="-0.4635" relative="1" as="geometry">
            <mxPoint x="23" y="31" as="offset" />
          </mxGeometry>
        </mxCell>
        <mxCell id="y9ipd3A6CDy-UtK4piMf-61" style="rounded=0;orthogonalLoop=1;jettySize=auto;html=1;strokeColor=default;endArrow=none;startFill=0;" parent="1" source="y9ipd3A6CDy-UtK4piMf-28" target="y9ipd3A6CDy-UtK4piMf-6" edge="1">
          <mxGeometry relative="1" as="geometry">
            <mxPoint x="1040" y="50" as="sourcePoint" />
            <mxPoint x="975" y="50" as="targetPoint" />
          </mxGeometry>
        </mxCell>
        <mxCell id="y9ipd3A6CDy-UtK4piMf-62" value="TCP" style="edgeLabel;html=1;align=center;verticalAlign=middle;resizable=0;points=[];" parent="y9ipd3A6CDy-UtK4piMf-61" vertex="1" connectable="0">
          <mxGeometry x="-0.4635" relative="1" as="geometry">
            <mxPoint x="21" y="31" as="offset" />
          </mxGeometry>
        </mxCell>
        <mxCell id="9N64Wd9n4A45-hwmFFK6-7" value="Сервис&lt;div&gt;IdentityProvider&lt;/div&gt;" style="sketch=0;outlineConnect=0;fontColor=#232F3E;gradientColor=none;fillColor=#232F3D;strokeColor=none;dashed=0;verticalLabelPosition=bottom;verticalAlign=top;align=center;html=1;fontSize=12;fontStyle=0;aspect=fixed;pointerEvents=1;shape=mxgraph.aws4.traditional_server;" parent="1" vertex="1">
          <mxGeometry x="660" y="365.84000000000003" width="45" height="78" as="geometry" />
        </mxCell>
        <mxCell id="9N64Wd9n4A45-hwmFFK6-8" value="" style="shape=datastore;whiteSpace=wrap;html=1;" parent="1" vertex="1">
          <mxGeometry x="772.5" y="374.84000000000003" width="60" height="60" as="geometry" />
        </mxCell>
        <mxCell id="9N64Wd9n4A45-hwmFFK6-12" style="rounded=0;orthogonalLoop=1;jettySize=auto;html=1;strokeColor=default;endArrow=none;startFill=0;" parent="1" source="9N64Wd9n4A45-hwmFFK6-8" target="9N64Wd9n4A45-hwmFFK6-7" edge="1">
          <mxGeometry relative="1" as="geometry">
            <mxPoint x="1040" y="455" as="sourcePoint" />
            <mxPoint x="955" y="442" as="targetPoint" />
          </mxGeometry>
        </mxCell>
        <mxCell id="9N64Wd9n4A45-hwmFFK6-13" value="TCP" style="edgeLabel;html=1;align=center;verticalAlign=middle;resizable=0;points=[];" parent="9N64Wd9n4A45-hwmFFK6-12" vertex="1" connectable="0">
          <mxGeometry x="-0.4635" relative="1" as="geometry">
            <mxPoint x="-14" y="-15" as="offset" />
          </mxGeometry>
        </mxCell>
        <mxCell id="xTKr7X0Jv_riDhgkTKJA-2" value="Шлюз&lt;div&gt;для бэкенда&lt;/div&gt;" style="outlineConnect=0;dashed=0;verticalLabelPosition=bottom;verticalAlign=top;align=center;html=1;shape=mxgraph.aws3.internet_gateway;fillColor=#F58534;gradientColor=none;" vertex="1" parent="1">
          <mxGeometry x="510" y="210" width="90" height="95" as="geometry" />
        </mxCell>
        <mxCell id="xTKr7X0Jv_riDhgkTKJA-3" style="rounded=0;orthogonalLoop=1;jettySize=auto;html=1;strokeColor=default;endArrow=none;startFill=0;" edge="1" parent="1" source="xTKr7X0Jv_riDhgkTKJA-2" target="sHumg900K78rmV8-m8hz-3">
          <mxGeometry relative="1" as="geometry">
            <mxPoint x="520" y="415" as="sourcePoint" />
            <mxPoint x="438" y="415" as="targetPoint" />
          </mxGeometry>
        </mxCell>
        <mxCell id="xTKr7X0Jv_riDhgkTKJA-4" value="HTTPS" style="edgeLabel;html=1;align=center;verticalAlign=middle;resizable=0;points=[];" vertex="1" connectable="0" parent="xTKr7X0Jv_riDhgkTKJA-3">
          <mxGeometry x="-0.4635" relative="1" as="geometry">
            <mxPoint x="-46" y="5" as="offset" />
          </mxGeometry>
        </mxCell>
        <mxCell id="xTKr7X0Jv_riDhgkTKJA-5" style="rounded=0;orthogonalLoop=1;jettySize=auto;html=1;strokeColor=default;endArrow=none;startFill=0;" edge="1" parent="1" source="y9ipd3A6CDy-UtK4piMf-31" target="sHumg900K78rmV8-m8hz-3">
          <mxGeometry relative="1" as="geometry">
            <mxPoint x="520" y="305" as="sourcePoint" />
            <mxPoint x="430" y="380" as="targetPoint" />
          </mxGeometry>
        </mxCell>
        <mxCell id="xTKr7X0Jv_riDhgkTKJA-6" value="HTTPS" style="edgeLabel;html=1;align=center;verticalAlign=middle;resizable=0;points=[];" vertex="1" connectable="0" parent="xTKr7X0Jv_riDhgkTKJA-5">
          <mxGeometry x="-0.4635" relative="1" as="geometry">
            <mxPoint x="-18" y="-15" as="offset" />
          </mxGeometry>
        </mxCell>
        <mxCell id="xTKr7X0Jv_riDhgkTKJA-7" style="rounded=0;orthogonalLoop=1;jettySize=auto;html=1;strokeColor=default;endArrow=none;startFill=0;" edge="1" parent="1" source="y9ipd3A6CDy-UtK4piMf-4" target="xTKr7X0Jv_riDhgkTKJA-2">
          <mxGeometry relative="1" as="geometry">
            <mxPoint x="660" y="415" as="sourcePoint" />
            <mxPoint x="610" y="415" as="targetPoint" />
          </mxGeometry>
        </mxCell>
        <mxCell id="xTKr7X0Jv_riDhgkTKJA-8" value="HTTP" style="edgeLabel;html=1;align=center;verticalAlign=middle;resizable=0;points=[];" vertex="1" connectable="0" parent="xTKr7X0Jv_riDhgkTKJA-7">
          <mxGeometry x="-0.4635" relative="1" as="geometry">
            <mxPoint x="-14" y="-17" as="offset" />
          </mxGeometry>
        </mxCell>
        <mxCell id="xTKr7X0Jv_riDhgkTKJA-10" style="rounded=0;orthogonalLoop=1;jettySize=auto;html=1;strokeColor=default;endArrow=none;startFill=0;" edge="1" parent="1" source="9N64Wd9n4A45-hwmFFK6-7" target="y9ipd3A6CDy-UtK4piMf-31">
          <mxGeometry relative="1" as="geometry">
            <mxPoint x="660" y="577.4300000000001" as="sourcePoint" />
            <mxPoint x="600" y="577.4300000000001" as="targetPoint" />
          </mxGeometry>
        </mxCell>
        <mxCell id="xTKr7X0Jv_riDhgkTKJA-11" value="HTTP" style="edgeLabel;html=1;align=center;verticalAlign=middle;resizable=0;points=[];" vertex="1" connectable="0" parent="xTKr7X0Jv_riDhgkTKJA-10">
          <mxGeometry x="-0.4635" relative="1" as="geometry">
            <mxPoint x="-14" y="-22" as="offset" />
          </mxGeometry>
        </mxCell>
        <mxCell id="xTKr7X0Jv_riDhgkTKJA-12" style="rounded=0;orthogonalLoop=1;jettySize=auto;html=1;strokeColor=default;endArrow=none;startFill=0;" edge="1" parent="1" source="9N64Wd9n4A45-hwmFFK6-7" target="y9ipd3A6CDy-UtK4piMf-4">
          <mxGeometry relative="1" as="geometry">
            <mxPoint x="910" y="423" as="sourcePoint" />
            <mxPoint x="715" y="284" as="targetPoint" />
          </mxGeometry>
        </mxCell>
        <mxCell id="xTKr7X0Jv_riDhgkTKJA-13" value="HTTP" style="edgeLabel;html=1;align=center;verticalAlign=middle;resizable=0;points=[];" vertex="1" connectable="0" parent="xTKr7X0Jv_riDhgkTKJA-12">
          <mxGeometry x="-0.4635" relative="1" as="geometry">
            <mxPoint x="-22" y="-9" as="offset" />
          </mxGeometry>
        </mxCell>
        <mxCell id="xTKr7X0Jv_riDhgkTKJA-14" value="" style="rounded=0;orthogonalLoop=1;jettySize=auto;html=1;strokeColor=default;endArrow=none;startFill=0;fontStyle=1" edge="1" parent="1" source="y9ipd3A6CDy-UtK4piMf-29" target="y9ipd3A6CDy-UtK4piMf-46">
          <mxGeometry relative="1" as="geometry">
            <mxPoint x="563" y="40" as="sourcePoint" />
            <mxPoint x="563" y="80" as="targetPoint" />
          </mxGeometry>
        </mxCell>
        <mxCell id="xTKr7X0Jv_riDhgkTKJA-15" value="TCP" style="edgeLabel;html=1;align=center;verticalAlign=middle;resizable=0;points=[];" vertex="1" connectable="0" parent="xTKr7X0Jv_riDhgkTKJA-14">
          <mxGeometry x="-0.4635" relative="1" as="geometry">
            <mxPoint x="23" y="44" as="offset" />
          </mxGeometry>
        </mxCell>
        <mxCell id="y9ipd3A6CDy-UtK4piMf-46" value="СУБД платежей" style="text;html=1;align=center;verticalAlign=middle;whiteSpace=wrap;rounded=0;" parent="1" vertex="1">
          <mxGeometry x="512.5" y="-90" width="100" height="30" as="geometry" />
        </mxCell>
        <mxCell id="xTKr7X0Jv_riDhgkTKJA-17" value="СУБД действий&lt;div&gt;в система&lt;/div&gt;" style="text;html=1;align=center;verticalAlign=middle;whiteSpace=wrap;rounded=0;" vertex="1" parent="1">
          <mxGeometry x="865" y="287.5" width="137.5" height="30" as="geometry" />
        </mxCell>
        <mxCell id="xTKr7X0Jv_riDhgkTKJA-46" value="Брокер сообщений Kafka" style="sketch=0;outlineConnect=0;fontColor=#232F3E;gradientColor=none;fillColor=#E7157B;strokeColor=none;dashed=0;verticalLabelPosition=bottom;verticalAlign=top;align=center;html=1;fontSize=12;fontStyle=0;aspect=fixed;pointerEvents=1;shape=mxgraph.aws4.mq_broker;" vertex="1" parent="1">
          <mxGeometry x="765.5" y="109.87" width="78" height="69" as="geometry" />
        </mxCell>
        <mxCell id="xTKr7X0Jv_riDhgkTKJA-47" value="HTTP" style="edgeLabel;html=1;align=center;verticalAlign=middle;resizable=0;points=[];" vertex="1" connectable="0" parent="1">
          <mxGeometry x="619.9972496980598" y="189.000033774894" as="geometry">
            <mxPoint x="39" y="-21" as="offset" />
          </mxGeometry>
        </mxCell>
        <mxCell id="xTKr7X0Jv_riDhgkTKJA-48" style="rounded=0;orthogonalLoop=1;jettySize=auto;html=1;strokeColor=default;endArrow=none;startFill=0;" edge="1" parent="1" source="y9ipd3A6CDy-UtK4piMf-6" target="xTKr7X0Jv_riDhgkTKJA-46">
          <mxGeometry relative="1" as="geometry">
            <mxPoint x="693" y="-80" as="sourcePoint" />
            <mxPoint x="693" y="-10" as="targetPoint" />
          </mxGeometry>
        </mxCell>
        <mxCell id="xTKr7X0Jv_riDhgkTKJA-49" value="TCP" style="edgeLabel;html=1;align=center;verticalAlign=middle;resizable=0;points=[];" vertex="1" connectable="0" parent="xTKr7X0Jv_riDhgkTKJA-48">
          <mxGeometry x="-0.4635" relative="1" as="geometry">
            <mxPoint x="23" y="31" as="offset" />
          </mxGeometry>
        </mxCell>
        <mxCell id="xTKr7X0Jv_riDhgkTKJA-50" style="rounded=0;orthogonalLoop=1;jettySize=auto;html=1;strokeColor=default;endArrow=none;startFill=0;" edge="1" parent="1" source="y9ipd3A6CDy-UtK4piMf-9" target="xTKr7X0Jv_riDhgkTKJA-46">
          <mxGeometry relative="1" as="geometry">
            <mxPoint x="813" y="68" as="sourcePoint" />
            <mxPoint x="814" y="130" as="targetPoint" />
          </mxGeometry>
        </mxCell>
        <mxCell id="xTKr7X0Jv_riDhgkTKJA-51" value="TCP" style="edgeLabel;html=1;align=center;verticalAlign=middle;resizable=0;points=[];" vertex="1" connectable="0" parent="xTKr7X0Jv_riDhgkTKJA-50">
          <mxGeometry x="-0.4635" relative="1" as="geometry">
            <mxPoint x="50" y="40" as="offset" />
          </mxGeometry>
        </mxCell>
        <mxCell id="xTKr7X0Jv_riDhgkTKJA-52" style="rounded=0;orthogonalLoop=1;jettySize=auto;html=1;strokeColor=default;endArrow=none;startFill=0;" edge="1" parent="1" source="y9ipd3A6CDy-UtK4piMf-8" target="xTKr7X0Jv_riDhgkTKJA-46">
          <mxGeometry relative="1" as="geometry">
            <mxPoint x="715" y="54" as="sourcePoint" />
            <mxPoint x="784" y="130" as="targetPoint" />
          </mxGeometry>
        </mxCell>
        <mxCell id="xTKr7X0Jv_riDhgkTKJA-53" value="TCP" style="edgeLabel;html=1;align=center;verticalAlign=middle;resizable=0;points=[];" vertex="1" connectable="0" parent="xTKr7X0Jv_riDhgkTKJA-52">
          <mxGeometry x="-0.4635" relative="1" as="geometry">
            <mxPoint x="119" y="74" as="offset" />
          </mxGeometry>
        </mxCell>
        <mxCell id="xTKr7X0Jv_riDhgkTKJA-54" style="rounded=0;orthogonalLoop=1;jettySize=auto;html=1;strokeColor=default;endArrow=none;startFill=0;" edge="1" parent="1" source="y9ipd3A6CDy-UtK4piMf-7" target="xTKr7X0Jv_riDhgkTKJA-46">
          <mxGeometry relative="1" as="geometry">
            <mxPoint x="595" y="42" as="sourcePoint" />
            <mxPoint x="776" y="143" as="targetPoint" />
          </mxGeometry>
        </mxCell>
        <mxCell id="xTKr7X0Jv_riDhgkTKJA-55" value="TCP" style="edgeLabel;html=1;align=center;verticalAlign=middle;resizable=0;points=[];" vertex="1" connectable="0" parent="xTKr7X0Jv_riDhgkTKJA-54">
          <mxGeometry x="-0.4635" relative="1" as="geometry">
            <mxPoint x="-14" y="2" as="offset" />
          </mxGeometry>
        </mxCell>
      </root>
    </mxGraphModel>
  </diagram>
</mxfile>
